<svg xmlns="http://www.w3.org/2000/svg" viewBox="0 0 1860 800" width="1860" height="800" font-family="Segoe UI, Arial, sans-serif">
<defs>
  <pattern id="grid" width="40" height="40" patternUnits="userSpaceOnUse"><path d="M40 0H0V40" fill="none" stroke="#12232d" stroke-width="1"/></pattern>
  <filter id="glow" x="-30%" y="-30%" width="160%" height="160%"><feGaussianBlur stdDeviation="5" result="b"/><feMerge><feMergeNode in="b"/><feMergeNode in="SourceGraphic"/></feMerge></filter>
  <marker id="aC" markerWidth="12" markerHeight="12" refX="9" refY="6" orient="auto"><path d="M0,0 L12,6 L0,12 z" fill="#5fd3c8"/></marker>
  <marker id="aA" markerWidth="12" markerHeight="12" refX="9" refY="6" orient="auto"><path d="M0,0 L12,6 L0,12 z" fill="#f2b35a"/></marker>
  <marker id="aM" markerWidth="12" markerHeight="12" refX="9" refY="6" orient="auto"><path d="M0,0 L12,6 L0,12 z" fill="#8ee6b8"/></marker>
  <marker id="aR" markerWidth="12" markerHeight="12" refX="9" refY="6" orient="auto"><path d="M0,0 L12,6 L0,12 z" fill="#ef6b6b"/></marker>
</defs>
<rect width="1860" height="800" fill="#182a34"/><rect width="1860" height="800" fill="url(#grid)"/>
<line x1="120" y1="230" x2="1740" y2="230" stroke="#3d5c69" stroke-width="6" stroke-dasharray="4 14" stroke-linecap="round"/>
<circle cx="200" cy="230" r="80" fill="#20343f" stroke="#f2b35a" stroke-width="4" filter="url(#glow)"/>
<g transform="translate(162,192) scale(0.76)" fill="none" stroke="#f2b35a" stroke-width="3.95" stroke-linecap="round" stroke-linejoin="round"><rect x="14" y="12" width="72" height="24" rx="4"/><rect x="14" y="40" width="72" height="24" rx="4"/><rect x="14" y="68" width="72" height="24" rx="4"/><circle cx="28" cy="24" r="3"/><circle cx="28" cy="52" r="3"/><circle cx="28" cy="80" r="3"/><path d="M50 24 H74 M50 52 H74 M50 80 H74"/></g>
<rect x="35" y="350" width="330" height="300" rx="18" fill="#20343f" stroke="#f2b35a" stroke-width="3"/>
<text x="200" y="410" font-size="26" fill="#f2b35a" font-weight="700" text-anchor="middle">Segundo servidor</text>
<text x="200" y="500" font-size="21" fill="#e8f1f2" font-weight="400" text-anchor="middle">Cotización formal ya</text>
<text x="200" y="530" font-size="21" fill="#e8f1f2" font-weight="400" text-anchor="middle">hecha; agrega redundancia</text>
<text x="200" y="560" font-size="21" fill="#e8f1f2" font-weight="400" text-anchor="middle">física real</text>
<circle cx="565" cy="230" r="80" fill="#20343f" stroke="#a99cf0" stroke-width="4" filter="url(#glow)"/>
<g transform="translate(527,192) scale(0.76)" fill="none" stroke="#a99cf0" stroke-width="3.95" stroke-linecap="round" stroke-linejoin="round"><rect x="22" y="10" width="56" height="82" rx="3"/><path d="M34 26 H44 M56 26 H66 M34 44 H44 M56 44 H66 M34 62 H44 M56 62 H66"/><rect x="42" y="74" width="16" height="18"/></g>
<rect x="400" y="350" width="330" height="300" rx="18" fill="#20343f" stroke="#a99cf0" stroke-width="3"/>
<text x="565" y="410" font-size="26" fill="#a99cf0" font-weight="700" text-anchor="middle">Producción en bare</text>
<text x="565" y="444" font-size="26" fill="#a99cf0" font-weight="700" text-anchor="middle">metal</text>
<text x="565" y="500" font-size="21" fill="#e8f1f2" font-weight="400" text-anchor="middle">Migrar del entorno de</text>
<text x="565" y="530" font-size="21" fill="#e8f1f2" font-weight="400" text-anchor="middle">simulación al servidor de</text>
<text x="565" y="560" font-size="21" fill="#e8f1f2" font-weight="400" text-anchor="middle">CHIC</text>
<circle cx="930" cy="230" r="80" fill="#20343f" stroke="#5fd3c8" stroke-width="4" filter="url(#glow)"/>
<g transform="translate(892,192) scale(0.76)" fill="none" stroke="#5fd3c8" stroke-width="3.95" stroke-linecap="round" stroke-linejoin="round"><path d="M50 10 L92 86 H8 Z"/><path d="M50 38 V60"/><circle cx="50" cy="73" r="2"/></g>
<rect x="765" y="350" width="330" height="300" rx="18" fill="#20343f" stroke="#5fd3c8" stroke-width="3"/>
<text x="930" y="410" font-size="26" fill="#5fd3c8" font-weight="700" text-anchor="middle">Alertar antes del</text>
<text x="930" y="444" font-size="26" fill="#5fd3c8" font-weight="700" text-anchor="middle">límite</text>
<text x="930" y="500" font-size="21" fill="#e8f1f2" font-weight="400" text-anchor="middle">Aviso automático de</text>
<text x="930" y="530" font-size="21" fill="#e8f1f2" font-weight="400" text-anchor="middle">espacio en el</text>
<text x="930" y="560" font-size="21" fill="#e8f1f2" font-weight="400" text-anchor="middle">almacenamiento compartido</text>
<circle cx="1295" cy="230" r="80" fill="#20343f" stroke="#8ee6b8" stroke-width="4" filter="url(#glow)"/>
<g transform="translate(1257,192) scale(0.76)" fill="none" stroke="#8ee6b8" stroke-width="3.95" stroke-linecap="round" stroke-linejoin="round"><circle cx="50" cy="50" r="15"/><circle cx="50" cy="50" r="32"/><path d="M50 8 V18 M50 82 V92 M8 50 H18 M82 50 H92 M20 20 L27 27 M73 73 L80 80 M80 20 L73 27 M27 73 L20 80"/></g>
<rect x="1130" y="350" width="330" height="300" rx="18" fill="#20343f" stroke="#8ee6b8" stroke-width="3"/>
<text x="1295" y="410" font-size="26" fill="#8ee6b8" font-weight="700" text-anchor="middle">Formalizar el</text>
<text x="1295" y="444" font-size="26" fill="#8ee6b8" font-weight="700" text-anchor="middle">árbitro de 5</text>
<text x="1295" y="500" font-size="21" fill="#e8f1f2" font-weight="400" text-anchor="middle">Llevar la ampliación de</text>
<text x="1295" y="530" font-size="21" fill="#e8f1f2" font-weight="400" text-anchor="middle">etcd al código de Ansible,</text>
<text x="1295" y="560" font-size="21" fill="#e8f1f2" font-weight="400" text-anchor="middle">sin riesgo</text>
<circle cx="1660" cy="230" r="80" fill="#20343f" stroke="#ef6b6b" stroke-width="4" filter="url(#glow)"/>
<g transform="translate(1622,192) scale(0.76)" fill="none" stroke="#ef6b6b" stroke-width="3.95" stroke-linecap="round" stroke-linejoin="round"><path d="M50 8 L86 22 V50 C86 72 68 86 50 94 C32 86 14 72 14 50 V22 Z"/><path d="M34 50 L46 62 L68 36"/></g>
<rect x="1495" y="350" width="330" height="300" rx="18" fill="#20343f" stroke="#ef6b6b" stroke-width="3"/>
<text x="1660" y="410" font-size="26" fill="#ef6b6b" font-weight="700" text-anchor="middle">Revisión legal</text>
<text x="1660" y="500" font-size="21" fill="#e8f1f2" font-weight="400" text-anchor="middle">Un abogado revisa los</text>
<text x="1660" y="530" font-size="21" fill="#e8f1f2" font-weight="400" text-anchor="middle">documentos de la Ley</text>
<text x="1660" y="560" font-size="21" fill="#e8f1f2" font-weight="400" text-anchor="middle">21.719</text>
</svg>